<svg xmlns="http://www.w3.org/2000/svg" xmlns:xlink="http://www.w3.org/1999/xlink" width="1280" zoomAndPan="magnify" viewBox="0 0 960 1069.499973" height="1426" preserveAspectRatio="xMidYMid meet" version="1.0"><defs><clipPath id="d16878450d"><path d="M 0.222656 0 L 959.773438 0 L 959.773438 1069 L 0.222656 1069 Z M 0.222656 0 " clip-rule="nonzero"/></clipPath><clipPath id="8c93c1f201"><path d="M 220.324219 422.207031 L 733.085938 422.207031 L 733.085938 934.964844 L 220.324219 934.964844 Z M 220.324219 422.207031 " clip-rule="nonzero"/></clipPath><clipPath id="b2298745af"><path d="M 447 136 L 959.773438 136 L 959.773438 741 L 447 741 Z M 447 136 " clip-rule="nonzero"/></clipPath><clipPath id="98b4f8436f"><path d="M 640.007812 136.597656 L 1022.308594 572.074219 L 830.203125 740.722656 L 447.898438 305.246094 Z M 640.007812 136.597656 " clip-rule="nonzero"/></clipPath><clipPath id="72a1e3dae2"><path d="M 42 425 L 142 425 L 142 525 L 42 525 Z M 42 425 " clip-rule="nonzero"/></clipPath><clipPath id="2deff07e02"><path d="M 193.007812 0.597656 L 575.308594 436.074219 L 383.203125 604.722656 L 0.898438 169.246094 Z M 193.007812 0.597656 " clip-rule="nonzero"/></clipPath><clipPath id="d2fcbe6d27"><path d="M 575.355469 436.128906 L 193.050781 0.652344 L 0.945312 169.300781 L 383.25 604.777344 Z M 575.355469 436.128906 " clip-rule="nonzero"/></clipPath><clipPath id="8661674a8e"><path d="M 575.355469 436.128906 L 193.050781 0.652344 L -137.640625 290.964844 L 244.664062 726.441406 Z M 575.355469 436.128906 " clip-rule="nonzero"/></clipPath><clipPath id="de6eebe972"><path d="M 575.355469 436.128906 L 193.050781 0.652344 L -137.640625 290.964844 L 244.664062 726.441406 Z M 575.355469 436.128906 " clip-rule="nonzero"/></clipPath><clipPath id="81e62f1ebb"><path d="M 65 305 L 261 305 L 261 520 L 65 520 Z M 65 305 " clip-rule="nonzero"/></clipPath><clipPath id="b4ea0e8b5e"><path d="M 193.007812 0.597656 L 575.308594 436.074219 L 383.203125 604.722656 L 0.898438 169.246094 Z M 193.007812 0.597656 " clip-rule="nonzero"/></clipPath><clipPath id="5b854933dd"><path d="M 575.355469 436.128906 L 193.050781 0.652344 L 0.945312 169.300781 L 383.25 604.777344 Z M 575.355469 436.128906 " clip-rule="nonzero"/></clipPath><clipPath id="50c787c151"><path d="M 575.355469 436.128906 L 193.050781 0.652344 L -137.640625 290.964844 L 244.664062 726.441406 Z M 575.355469 436.128906 " clip-rule="nonzero"/></clipPath><clipPath id="f03ce370a1"><path d="M 575.355469 436.128906 L 193.050781 0.652344 L -137.640625 290.964844 L 244.664062 726.441406 Z M 575.355469 436.128906 " clip-rule="nonzero"/></clipPath><clipPath id="81298a32ed"><path d="M 78 87 L 481 87 L 481 534 L 78 534 Z M 78 87 " clip-rule="nonzero"/></clipPath><clipPath id="c4e6b83220"><path d="M 193.007812 0.597656 L 575.308594 436.074219 L 383.203125 604.722656 L 0.898438 169.246094 Z M 193.007812 0.597656 " clip-rule="nonzero"/></clipPath><clipPath id="4d152aff8c"><path d="M 575.355469 436.128906 L 193.050781 0.652344 L 0.945312 169.300781 L 383.25 604.777344 Z M 575.355469 436.128906 " clip-rule="nonzero"/></clipPath><clipPath id="ef8a318be6"><path d="M 575.355469 436.128906 L 193.050781 0.652344 L -137.640625 290.964844 L 244.664062 726.441406 Z M 575.355469 436.128906 " clip-rule="nonzero"/></clipPath><clipPath id="92b81c763f"><path d="M 575.355469 436.128906 L 193.050781 0.652344 L -137.640625 290.964844 L 244.664062 726.441406 Z M 575.355469 436.128906 " clip-rule="nonzero"/></clipPath><clipPath id="bb52810c60"><path d="M 71 198 L 369 198 L 369 527 L 71 527 Z M 71 198 " clip-rule="nonzero"/></clipPath><clipPath id="4ad64f9841"><path d="M 193.007812 0.597656 L 575.308594 436.074219 L 383.203125 604.722656 L 0.898438 169.246094 Z M 193.007812 0.597656 " clip-rule="nonzero"/></clipPath><clipPath id="cc3967040b"><path d="M 575.355469 436.128906 L 193.050781 0.652344 L 0.945312 169.300781 L 383.25 604.777344 Z M 575.355469 436.128906 " clip-rule="nonzero"/></clipPath><clipPath id="035a6998ea"><path d="M 575.355469 436.128906 L 193.050781 0.652344 L -137.640625 290.964844 L 244.664062 726.441406 Z M 575.355469 436.128906 " clip-rule="nonzero"/></clipPath><clipPath id="d15a1fdfb2"><path d="M 575.355469 436.128906 L 193.050781 0.652344 L -137.640625 290.964844 L 244.664062 726.441406 Z M 575.355469 436.128906 " clip-rule="nonzero"/></clipPath><clipPath id="a0863c5b16"><rect x="0" width="513" y="0" height="605"/></clipPath><clipPath id="9103fd7772"><path d="M 247 443 L 452 443 L 452 648 L 247 648 Z M 247 443 " clip-rule="nonzero"/></clipPath><clipPath id="5082a61556"><path d="M -63.109375 541.582031 L 346.117188 132.359375 L 530.054688 316.296875 L 120.832031 725.523438 Z M -63.109375 541.582031 " clip-rule="nonzero"/></clipPath><clipPath id="a0269a0ecd"><path d="M -63.394531 541.867188 L 345.832031 132.644531 L 529.769531 316.585938 L 120.546875 725.808594 Z M -63.394531 541.867188 " clip-rule="nonzero"/></clipPath><clipPath id="fdbc1a4ef5"><path d="M -63.921875 542.398438 L 345.832031 132.644531 L 656.988281 443.804688 L 247.234375 853.558594 Z M -63.921875 542.398438 " clip-rule="nonzero"/></clipPath><clipPath id="02446dc4c4"><path d="M 27 224 L 453 224 L 453 649 L 27 649 Z M 27 224 " clip-rule="nonzero"/></clipPath><clipPath id="e1cfa5a188"><path d="M -63.109375 541.582031 L 346.117188 132.359375 L 530.054688 316.296875 L 120.832031 725.523438 Z M -63.109375 541.582031 " clip-rule="nonzero"/></clipPath><clipPath id="ee8efc26a5"><path d="M -63.394531 541.867188 L 345.832031 132.644531 L 529.769531 316.585938 L 120.546875 725.808594 Z M -63.394531 541.867188 " clip-rule="nonzero"/></clipPath><clipPath id="be84049119"><path d="M -63.921875 542.398438 L 345.832031 132.644531 L 656.988281 443.804688 L 247.234375 853.558594 Z M -63.921875 542.398438 " clip-rule="nonzero"/></clipPath><clipPath id="0bb1cfbba5"><path d="M 139 336 L 452 336 L 452 649 L 139 649 Z M 139 336 " clip-rule="nonzero"/></clipPath><clipPath id="a5f06dcc14"><path d="M -63.109375 541.582031 L 346.117188 132.359375 L 530.054688 316.296875 L 120.832031 725.523438 Z M -63.109375 541.582031 " clip-rule="nonzero"/></clipPath><clipPath id="4eed2675c3"><path d="M -63.394531 541.867188 L 345.832031 132.644531 L 529.769531 316.585938 L 120.546875 725.808594 Z M -63.394531 541.867188 " clip-rule="nonzero"/></clipPath><clipPath id="f314110517"><path d="M -63.921875 542.398438 L 345.832031 132.644531 L 656.988281 443.804688 L 247.234375 853.558594 Z M -63.921875 542.398438 " clip-rule="nonzero"/></clipPath></defs><g clip-path="url(#d16878450d)"><path fill="#ffffff" d="M 0.222656 0 L 959.777344 0 L 959.777344 1069 L 0.222656 1069 Z M 0.222656 0 " fill-opacity="1" fill-rule="nonzero"/><path fill="#ffffff" d="M 0.222656 0 L 959.777344 0 L 959.777344 1069 L 0.222656 1069 Z M 0.222656 0 " fill-opacity="1" fill-rule="nonzero"/></g><g clip-path="url(#8c93c1f201)"><path fill="#000000" d="M 733.003906 678.523438 C 733.003906 537.167969 618 422.164062 476.644531 422.164062 C 335.285156 422.164062 220.285156 537.167969 220.285156 678.523438 L 220.285156 832.339844 C 220.285156 888.894531 266.273438 934.882812 322.828125 934.882812 L 348.464844 934.882812 C 376.738281 934.882812 399.734375 911.890625 399.734375 883.613281 L 399.734375 755.433594 C 399.734375 727.15625 376.738281 704.160156 348.464844 704.160156 L 322.828125 704.160156 C 309.214844 704.160156 296.269531 706.953125 284.375 711.773438 L 284.375 678.523438 C 284.375 572.496094 370.613281 486.253906 476.644531 486.253906 C 582.671875 486.253906 668.914062 572.496094 668.914062 678.523438 L 668.914062 711.773438 C 657.019531 706.953125 644.070312 704.160156 630.457031 704.160156 L 604.824219 704.160156 C 576.546875 704.160156 553.550781 727.15625 553.550781 755.433594 L 553.550781 883.613281 C 553.550781 911.890625 576.546875 934.882812 604.824219 934.882812 L 630.457031 934.882812 C 687.011719 934.882812 733.003906 888.894531 733.003906 832.339844 Z M 733.003906 678.523438 " fill-opacity="1" fill-rule="nonzero"/></g><g clip-path="url(#b2298745af)"><g clip-path="url(#98b4f8436f)"><g transform="matrix(1, 0, 0, 1, 447, 136)"><g clip-path="url(#a0863c5b16)"><g clip-path="url(#72a1e3dae2)"><g clip-path="url(#2deff07e02)"><g clip-path="url(#d2fcbe6d27)"><g clip-path="url(#8661674a8e)"><g clip-path="url(#de6eebe972)"><path fill="#000000" d="M 129.433594 442.050781 C 147.453125 462.582031 145.386719 494.191406 124.839844 512.230469 C 104.292969 530.265625 72.679688 528.222656 54.660156 507.695312 C 36.636719 487.167969 38.707031 455.554688 59.25 437.519531 C 80.132812 419.183594 111.410156 421.523438 129.433594 442.050781 Z M 129.433594 442.050781 " fill-opacity="1" fill-rule="nonzero"/></g></g></g></g></g><g clip-path="url(#81e62f1ebb)"><g clip-path="url(#b4ea0e8b5e)"><g clip-path="url(#5b854933dd)"><g clip-path="url(#50c787c151)"><g clip-path="url(#f03ce370a1)"><path fill="#000000" d="M 218.015625 364.285156 C 248.152344 398.613281 263.039062 442.746094 260.398438 487.972656 C 259.199219 506.304688 243.367188 520.203125 225.03125 519.019531 C 216.179688 518.445312 207.875 514.417969 201.964844 507.6875 C 196.054688 500.957031 193.136719 492.195312 193.714844 483.347656 C 195.535156 455.527344 186.484375 428.914062 168.167969 408.046875 C 149.847656 387.183594 124.335938 374.421875 96.515625 372.625 C 87.664062 372.054688 79.355469 368.027344 73.445312 361.292969 C 67.539062 354.5625 64.617188 345.804688 65.199219 336.953125 C 66.398438 318.617188 82.226562 304.722656 100.5625 305.90625 C 146.046875 309.480469 187.878906 329.957031 218.015625 364.285156 Z M 218.015625 364.285156 " fill-opacity="1" fill-rule="nonzero"/></g></g></g></g></g><g clip-path="url(#81298a32ed)"><g clip-path="url(#c4e6b83220)"><g clip-path="url(#4d152aff8c)"><g clip-path="url(#ef8a318be6)"><g clip-path="url(#92b81c763f)"><path fill="#000000" d="M 114.246094 87.113281 C 218.570312 93.851562 314.21875 140.984375 383.058594 219.394531 C 451.894531 297.808594 486.578125 398.457031 479.753906 502.777344 C 478.550781 521.109375 462.722656 535.007812 444.386719 533.824219 C 435.535156 533.253906 427.226562 529.222656 421.316406 522.492188 C 415.410156 515.761719 412.488281 507.003906 413.070312 498.152344 C 418.695312 412.167969 390.1875 328.742188 332.871094 263.453125 C 275.554688 198.167969 196.523438 159.09375 109.902344 153.496094 C 101.050781 152.925781 92.742188 148.898438 86.835938 142.167969 C 80.925781 135.4375 78.007812 126.675781 78.585938 117.824219 C 80.082031 99.828125 95.910156 85.929688 114.246094 87.113281 Z M 114.246094 87.113281 " fill-opacity="1" fill-rule="nonzero"/></g></g></g></g></g><g clip-path="url(#bb52810c60)"><g clip-path="url(#4ad64f9841)"><g clip-path="url(#cc3967040b)"><g clip-path="url(#035a6998ea)"><g clip-path="url(#d15a1fdfb2)"><path fill="#000000" d="M 298.515625 293.613281 C 347.558594 349.480469 372.09375 420.902344 367.546875 495.210938 C 366.96875 504.0625 362.929688 512.371094 356.195312 518.285156 C 349.457031 524.199219 340.695312 527.125 331.84375 526.554688 C 322.992188 525.980469 314.683594 521.953125 308.773438 515.222656 C 302.867188 508.492188 299.949219 499.730469 300.527344 490.882812 C 304.210938 434.613281 285.554688 380.074219 248.328125 337.671875 C 211.105469 295.269531 159.441406 269.710938 103.171875 266.074219 C 94.320312 265.503906 86.011719 261.476562 80.101562 254.742188 C 74.195312 248.011719 71.273438 239.253906 71.855469 230.402344 C 72.433594 221.550781 76.46875 213.242188 83.207031 207.328125 C 89.941406 201.414062 98.703125 198.488281 107.554688 199.058594 C 181.488281 204.46875 249.472656 237.75 298.515625 293.613281 Z M 298.515625 293.613281 " fill-opacity="1" fill-rule="nonzero"/></g></g></g></g></g></g></g></g></g><g clip-path="url(#9103fd7772)"><g clip-path="url(#5082a61556)"><g clip-path="url(#a0269a0ecd)"><g clip-path="url(#fdbc1a4ef5)"><path fill="#000000" d="M 297.324219 493.894531 C 265.027344 526.191406 247.304688 569.269531 247.007812 614.570312 C 247.015625 632.941406 261.910156 647.839844 280.28125 647.847656 C 289.152344 647.851562 297.707031 644.367188 304.039062 638.035156 C 310.371094 631.703125 313.851562 623.152344 313.847656 614.28125 C 313.835938 586.402344 324.597656 560.429688 344.230469 540.796875 C 363.863281 521.164062 390.152344 510.089844 418.027344 510.101562 C 426.898438 510.105469 435.449219 506.625 441.785156 500.289062 C 448.117188 493.957031 451.597656 485.40625 451.59375 476.535156 C 451.585938 458.160156 436.691406 443.265625 418.316406 443.257812 C 372.699219 443.871094 329.625 461.59375 297.324219 493.894531 Z M 297.324219 493.894531 " fill-opacity="1" fill-rule="nonzero"/></g></g></g></g><g clip-path="url(#02446dc4c4)"><g clip-path="url(#e1cfa5a188)"><g clip-path="url(#ee8efc26a5)"><g clip-path="url(#be84049119)"><path fill="#000000" d="M 418.859375 224.039062 C 314.320312 223.996094 215.8125 264.820312 142.03125 338.601562 C 68.253906 412.382812 27.109375 510.570312 27.15625 615.109375 C 27.164062 633.484375 42.058594 648.378906 60.429688 648.386719 C 69.300781 648.390625 77.851562 644.910156 84.1875 638.578125 C 90.519531 632.242188 94 623.691406 93.996094 614.820312 C 93.960938 528.65625 127.824219 447.253906 189.253906 385.824219 C 250.6875 324.390625 332.085938 290.53125 418.886719 290.566406 C 427.757812 290.570312 436.308594 287.089844 442.640625 280.753906 C 448.976562 274.421875 452.457031 265.871094 452.453125 257 C 452.128906 238.941406 437.234375 224.046875 418.859375 224.039062 Z M 418.859375 224.039062 " fill-opacity="1" fill-rule="nonzero"/></g></g></g></g><g clip-path="url(#0bb1cfbba5)"><g clip-path="url(#a5f06dcc14)"><g clip-path="url(#4eed2675c3)"><g clip-path="url(#f314110517)"><path fill="#000000" d="M 221.582031 418.148438 C 169.015625 470.714844 139.898438 540.394531 139.613281 614.839844 C 139.617188 623.710938 143.105469 632.265625 149.445312 638.605469 C 155.785156 644.941406 164.339844 648.429688 173.207031 648.433594 C 182.078125 648.4375 190.628906 644.957031 196.964844 638.625 C 203.296875 632.292969 206.777344 623.738281 206.773438 614.871094 C 206.75 558.480469 228.902344 505.269531 268.800781 465.371094 C 308.699219 425.472656 361.914062 403.320312 418.300781 403.34375 C 427.171875 403.347656 435.722656 399.867188 442.054688 393.53125 C 448.390625 387.199219 451.871094 378.648438 451.867188 369.777344 C 451.863281 360.90625 448.375 352.351562 442.035156 346.015625 C 435.699219 339.675781 427.144531 336.1875 418.273438 336.183594 C 344.144531 336.785156 274.144531 365.585938 221.582031 418.148438 Z M 221.582031 418.148438 " fill-opacity="1" fill-rule="nonzero"/></g></g></g></g></svg>